<svg xmlns="http://www.w3.org/2000/svg" width="463" height="241" fill="none" viewBox="0 0 463 241">
    <circle cx="390" cy="53" r="50" fill="#35A5D4" fill-opacity=".1"/>
    <circle cx="390" cy="53" r="49.5" stroke="#fff" stroke-opacity=".5"/>
    <path fill="#35A5D4" fill-opacity=".2" d="M228.506 28.409c3.558-2.617 8.41-2.59 11.939.066l198.657 149.536c7.67 5.774 3.587 17.989-6.014 17.989H31.126c-9.657 0-13.704-12.333-5.925-18.056L228.506 28.409z"/>
    <path stroke="#fff" stroke-opacity=".3" d="M228.802 28.812c3.38-2.486 7.99-2.46 11.342.062L438.801 178.41c7.287 5.485 3.408 17.09-5.713 17.09H31.126c-9.174 0-13.02-11.717-5.629-17.153L228.803 28.812z"/>
    <g filter="url(#filter0_b)">
        <path fill="#35A5D4" fill-opacity=".03" d="M120.274 9.528c3.098-4.885 9.684-6.13 14.352-2.712l233.698 171.116c7.8 5.711 3.76 18.068-5.908 18.068H20.185c-7.885 0-12.668-8.698-8.445-15.356L120.274 9.528z"/>
        <path stroke="#fff" stroke-opacity=".4" d="M120.696 9.796c2.944-4.641 9.2-5.824 13.635-2.577l233.697 171.116c7.411 5.426 3.573 17.165-5.612 17.165H20.185c-7.49 0-12.035-8.263-8.023-14.588L120.696 9.796z"/>
    </g>
    <path fill="#B8C1CD" d="M118.712 231c-.457 0-.844-.094-1.16-.281-.311-.194-.621-.536-.932-1.029-.129.305-.29.548-.483.73-.194.176-.41.308-.651.395-.24.082-.495.135-.764.159-.27.017-.536.026-.8.026h-2.549v-1.389h3.006c.469 0 .826-.058 1.072-.175.252-.118.378-.288.378-.51 0-.217-.056-.431-.167-.642-.111-.211-.252-.439-.422-.685l-1.775-2.628 1.292-.809 2.004 3.34c.228.369.425.688.589.958.17.264.331.48.483.65.152.164.296.29.431.378.14.082.29.123.448.123.445 0 .668.223.668.668 0 .282-.053.472-.158.572-.106.099-.276.149-.51.149zm.017 0c-.445 0-.667-.223-.667-.668 0-.281.052-.472.158-.571.105-.1.275-.15.509-.15h1.125c.264 0 .493-.011.686-.035.193-.023.352-.076.475-.158.129-.088.225-.211.29-.369.064-.158.096-.378.096-.659v-3.841h1.363v3.217c0 .281.02.536.061.764.041.229.117.422.229.58.111.153.26.276.448.369.193.088.436.132.729.132.446 0 .668.223.668.668 0 .282-.052.472-.158.572-.105.099-.275.149-.51.149-.439 0-.793-.103-1.063-.308-.27-.211-.448-.471-.536-.782-.199.457-.513.753-.941.888-.427.135-.955.202-1.582.202h-1.38zm1.328 2.531c0-.246.085-.457.255-.633.175-.169.386-.254.632-.254s.454.085.624.254c.176.176.264.387.264.633s-.088.454-.264.624c-.17.176-.378.264-.624.264s-.457-.088-.632-.264c-.17-.17-.255-.378-.255-.624zm2.179 0c0-.246.085-.457.255-.633.17-.169.378-.254.624-.254.252 0 .463.085.633.254.176.176.264.387.264.633s-.088.454-.264.624c-.17.176-.381.264-.633.264-.246 0-.454-.088-.624-.264-.17-.17-.255-.378-.255-.624zm2.013-2.531c-.445 0-.668-.223-.668-.668 0-.281.053-.472.158-.571.106-.1.276-.15.51-.15h1.125c.264 0 .492-.011.686-.035.193-.023.351-.076.474-.158.129-.088.226-.211.29-.369.065-.158.097-.378.097-.659v-3.841h1.362v3.217c0 .281.021.536.062.764.041.229.117.422.228.58.112.153.261.276.448.369.194.088.437.132.73.132.445 0 .668.223.668.668 0 .282-.053.472-.158.572-.106.099-.276.149-.51.149-.439 0-.794-.103-1.063-.308-.27-.211-.449-.471-.537-.782-.199.457-.512.753-.94.888-.428.135-.955.202-1.582.202h-1.38zm2.514-9.272c0-.247.088-.455.263-.624.176-.17.387-.255.633-.255.24 0 .445.085.615.255.176.169.264.377.264.624 0 .251-.088.465-.264.641-.17.17-.375.255-.615.255-.246 0-.457-.085-.633-.255-.175-.176-.263-.39-.263-.641zm3.006 9.272c-.446 0-.668-.223-.668-.668 0-.281.052-.472.158-.571.105-.1.275-.15.51-.15h4.007c.411 0 .753-.073 1.029-.219.275-.147.413-.425.413-.835 0-.293-.138-.624-.413-.994-.276-.375-.639-.755-1.09-1.142-.451-.387-.97-.768-1.556-1.143-.58-.375-1.18-.712-1.802-1.01.012-.135.044-.273.097-.414.059-.14.12-.269.185-.386.07-.117.14-.22.211-.308.07-.094.131-.155.184-.184l6.126-2.699v1.354l-4.922 2.18c.78.457 1.442.905 1.987 1.344.55.434.999.853 1.344 1.257.346.404.592.794.739 1.169.152.369.228.721.228 1.055 0 .234-.035.492-.105.773-.071.281-.208.539-.413.774-.2.234-.484.43-.853.588-.369.153-.844.229-1.424.229h-3.972zm18.799-1.837c0 .533-.187.973-.562 1.318-.369.346-.905.519-1.609.519h-3.999v-1.389h3.885c.381 0 .621-.058.721-.175.105-.118.158-.249.158-.396 0-.111-.023-.228-.07-.352-.047-.123-.158-.316-.334-.58-.17-.269-.419-.65-.747-1.142-.328-.498-.78-1.163-1.354-1.995l1.292-.809c.446.774.832 1.424 1.16 1.951.334.522.607.967.818 1.336.217.363.378.68.483.949.106.264.158.519.158.765zm8.359 1.837c-.047.68-.191 1.242-.431 1.688-.24.451-.565.808-.975 1.072-.411.269-.906.46-1.486.571-.574.111-1.213.167-1.916.167h-.703v-1.389h.519c.521 0 .999-.026 1.432-.079.44-.047.818-.146 1.134-.299.322-.152.574-.369.756-.65.181-.275.281-.636.299-1.081h-1.899c-.457 0-.879-.05-1.265-.149-.381-.1-.715-.264-1.002-.493-.287-.234-.513-.533-.677-.896-.158-.369-.237-.826-.237-1.371 0-.463.073-.911.219-1.345.153-.439.372-.826.659-1.16.288-.334.633-.604 1.038-.809.41-.211.879-.316 1.406-.316.58 0 1.069.105 1.468.316.398.205.723.498.975.879.258.375.443.832.554 1.371.111.539.167 1.137.167 1.793v.791h1.169c.451 0 .677.223.677.668 0 .282-.056.472-.167.572-.106.099-.276.149-.51.149h-1.204zm-5.107-3.05c0 .574.164.996.492 1.266.329.263.809.395 1.442.395h1.802v-1.107c0-.826-.141-1.485-.422-1.978-.281-.492-.762-.738-1.442-.738-.322 0-.6.065-.835.193-.234.129-.427.299-.58.51-.146.205-.26.437-.342.695-.077.252-.115.506-.115.764zm6.337 3.05c-.445 0-.668-.223-.668-.668 0-.281.053-.472.158-.571.106-.1.276-.15.51-.15h1.345c.199 0 .378-.011.536-.035.158-.023.29-.076.396-.158.105-.088.187-.211.246-.369.058-.158.088-.378.088-.659v-9.352h1.379v8.728c0 .568.115 1.019.343 1.353.229.328.595.492 1.099.492.445 0 .668.223.668.668 0 .282-.053.472-.158.572-.106.099-.276.149-.51.149-.434 0-.782-.103-1.046-.308-.264-.211-.439-.471-.527-.782-.205.457-.528.753-.967.888-.44.135-1.008.202-1.705.202h-1.187zm5.449 0c-.445 0-.668-.223-.668-.668 0-.281.053-.472.159-.571.105-.1.275-.15.509-.15h2.945v-5.062h1.371V231h-4.316zm4.29 2.531c0 .246-.088.454-.264.624-.17.176-.375.264-.615.264-.246 0-.457-.088-.633-.264-.176-.17-.264-.378-.264-.624s.088-.457.264-.633c.176-.169.387-.254.633-.254.24 0 .445.085.615.254.176.176.264.387.264.633zm-2.171 0c0 .246-.088.454-.264.624-.176.176-.387.264-.633.264s-.454-.088-.624-.264c-.17-.17-.255-.378-.255-.624s.085-.457.255-.633c.17-.169.378-.254.624-.254s.457.085.633.254c.176.176.264.387.264.633zm1.054 2.013c0 .246-.088.454-.263.624-.17.176-.381.264-.633.264-.246 0-.454-.088-.624-.264-.17-.17-.255-.378-.255-.624s.085-.457.255-.633c.17-.176.378-.264.624-.264.252 0 .463.088.633.264.175.176.263.387.263.633zm5.247-16.506V231h-1.371v-11.962h1.371zm-3.63-2.285c.258-.252.501-.416.73-.492.228-.082.454-.123.677-.123.211 0 .463.05.756.149.298.1.58.211.843.334.264.123.519.229.765.317.246.082.466.123.659.123.287 0 .501-.077.642-.229.146-.158.249-.322.307-.492l.537.237c-.159.434-.346.762-.563.985-.211.222-.519.334-.923.334-.31 0-.603-.047-.879-.141-.269-.094-.53-.202-.782-.325-.258-.123-.516-.229-.773-.317-.258-.093-.498-.14-.721-.14-.188 0-.346.023-.475.07-.129.041-.278.126-.448.255l-.352-.545zm11.831 2.285V231h-1.372v-11.962h1.372zm3.287 6.346h1.344v4.676c0 .826-.046 1.52-.14 2.083-.088.568-.267 1.025-.536 1.371-.27.345-.642.594-1.117.747-.474.158-1.086.237-1.836.237v-1.389c.544 0 .969-.058 1.274-.175.31-.118.539-.308.685-.572.153-.258.244-.591.273-1.002.035-.41.053-.905.053-1.485v-4.491zm12.744 3.779c0 .533-.188.973-.563 1.318-.369.346-.905.519-1.608.519h-3.999v-1.389h3.885c.381 0 .621-.058.72-.175.106-.118.159-.249.159-.396 0-.111-.024-.228-.071-.352-.047-.123-.158-.316-.334-.58-.17-.269-.419-.65-.747-1.142-.328-.498-.779-1.163-1.353-1.995l1.292-.809c.445.774.832 1.424 1.16 1.951.334.522.606.967.817 1.336.217.363.378.68.484.949.105.264.158.519.158.765zm8.358 1.837c-.047.68-.19 1.242-.43 1.688-.241.451-.566.808-.976 1.072-.41.269-.905.46-1.485.571-.575.111-1.213.167-1.916.167h-.704v-1.389h.519c.522 0 .999-.026 1.433-.079.439-.047.817-.146 1.133-.299.323-.152.575-.369.756-.65.182-.275.282-.636.299-1.081h-1.898c-.457 0-.879-.05-1.266-.149-.381-.1-.715-.264-1.002-.493-.287-.234-.513-.533-.677-.896-.158-.369-.237-.826-.237-1.371 0-.463.073-.911.22-1.345.152-.439.372-.826.659-1.16.287-.334.633-.604 1.037-.809.41-.211.879-.316 1.406-.316.58 0 1.07.105 1.468.316.399.205.724.498.976.879.257.375.442.832.553 1.371.112.539.167 1.137.167 1.793v.791h1.169c.451 0 .677.223.677.668 0 .282-.056.472-.167.572-.105.099-.275.149-.51.149h-1.204zm-5.106-3.05c0 .574.164.996.492 1.266.328.263.809.395 1.441.395h1.802v-1.107c0-.826-.141-1.485-.422-1.978-.281-.492-.761-.738-1.441-.738-.322 0-.601.065-.835.193-.235.129-.428.299-.58.51-.147.205-.261.437-.343.695-.076.252-.114.506-.114.764zm13.06 1.661c0-.715-.096-1.318-.29-1.81-.187-.492-.442-.891-.764-1.196-.323-.31-.701-.533-1.134-.667-.428-.141-.888-.211-1.38-.211-.322 0-.668.029-1.037.087-.363.059-.662.124-.897.194v-1.345c.223-.064.519-.138.888-.22.375-.088.776-.131 1.204-.131.856 0 1.588.146 2.197.439.616.287 1.12.68 1.512 1.178.393.498.68 1.081.861 1.749.182.662.273 1.359.273 2.092V231h-8.156c-.446 0-.668-.223-.668-.668 0-.281.052-.472.158-.571.105-.1.275-.15.51-.15h6.723zm-4.157-7.857c0-.252.085-.463.255-.633.176-.17.387-.255.633-.255s.454.085.624.255c.176.17.263.381.263.633 0 .246-.087.457-.263.633-.17.17-.378.255-.624.255s-.457-.085-.633-.255c-.17-.176-.255-.387-.255-.633zM224.33 231c-.369 0-.677-.082-.923-.246-.246-.17-.433-.366-.562-.589 0 .803-.05 1.48-.15 2.03-.093.557-.272 1.005-.536 1.345-.263.34-.63.583-1.098.73-.469.152-1.079.228-1.829.228v-1.389c.545 0 .97-.058 1.275-.175.31-.118.539-.308.685-.572.153-.258.244-.591.273-1.002.035-.41.053-.905.053-1.485v-4.491h1.344v2.382c0 .568.103 1.019.308 1.353.211.328.598.492 1.16.492.445 0 .668.223.668.668 0 .282-.053.472-.158.572-.106.099-.276.149-.51.149zm.009 0c-.445 0-.668-.223-.668-.668 0-.281.053-.472.158-.571.106-.1.275-.15.51-.15h1.89v-10.573h1.379v8.191c.575-.925 1.243-1.643 2.004-2.153.762-.51 1.653-.764 2.672-.764 1.084 0 1.931.342 2.54 1.028.61.68.914 1.623.914 2.83v1.441h1.266c.451 0 .677.223.677.668 0 .282-.056.472-.167.572-.106.099-.276.149-.51.149h-12.665zm10.028-1.389v-1.125c0-.381-.041-.741-.123-1.081-.076-.34-.211-.633-.404-.879-.188-.246-.437-.439-.747-.58-.305-.146-.68-.219-1.125-.219-.539 0-1.037.123-1.494.369-.457.24-.87.548-1.24.923-.369.375-.691.791-.966 1.248-.27.457-.49.905-.66 1.344h6.759zm-3.261-7.883c0-.247.088-.455.264-.624.176-.17.387-.255.633-.255s.454.085.624.255c.17.169.255.377.255.624 0 .251-.085.465-.255.641-.17.17-.378.255-.624.255s-.457-.085-.633-.255c-.176-.176-.264-.39-.264-.641zm8.289 0c0-.247.084-.455.254-.624.176-.17.387-.255.633-.255s.454.085.624.255c.176.169.264.377.264.624 0 .251-.088.465-.264.641-.17.17-.378.255-.624.255s-.457-.085-.633-.255c-.17-.176-.254-.39-.254-.641zM237.03 231c-.445 0-.668-.223-.668-.668 0-.281.053-.472.159-.571.105-.1.275-.15.509-.15h2.611v-5.062h1.38V231h-3.991zm15.548-1.837c0 .533-.187.973-.562 1.318-.37.346-.906.519-1.609.519h-3.999v-1.389h3.885c.381 0 .621-.058.721-.175.105-.118.158-.249.158-.396 0-.111-.024-.228-.07-.352-.047-.123-.159-.316-.334-.58-.17-.269-.419-.65-.747-1.142-.329-.498-.78-1.163-1.354-1.995l1.292-.809c.445.774.832 1.424 1.16 1.951.334.522.607.967.818 1.336.216.363.377.68.483.949.105.264.158.519.158.765zm2.76-3.779h1.345v4.676c0 .826-.047 1.52-.141 2.083-.088.568-.267 1.025-.536 1.371-.27.345-.642.594-1.116.747-.475.158-1.087.237-1.837.237v-1.389c.545 0 .969-.058 1.274-.175.311-.118.539-.308.686-.572.152-.258.243-.591.272-1.002.035-.41.053-.905.053-1.485v-4.491zm9.606 5.616c-.047.68-.19 1.242-.43 1.688-.241.451-.566.808-.976 1.072-.41.269-.905.46-1.485.571-.574.111-1.213.167-1.916.167h-.703v-1.389h.518c.522 0 .999-.026 1.433-.079.439-.047.817-.146 1.134-.299.322-.152.574-.369.755-.65.182-.275.282-.636.299-1.081h-1.898c-.457 0-.879-.05-1.266-.149-.381-.1-.715-.264-1.002-.493-.287-.234-.512-.533-.677-.896-.158-.369-.237-.826-.237-1.371 0-.463.073-.911.22-1.345.152-.439.372-.826.659-1.16.287-.334.633-.604 1.037-.809.41-.211.879-.316 1.406-.316.581 0 1.07.105 1.468.316.399.205.724.498.976.879.258.375.442.832.553 1.371.112.539.167 1.137.167 1.793v.791h1.169c.452 0 .677.223.677.668 0 .282-.055.472-.167.572-.105.099-.275.149-.51.149h-1.204zm-5.106-3.05c0 .574.164.996.492 1.266.328.263.809.395 1.441.395h1.802v-1.107c0-.826-.14-1.485-.422-1.978-.281-.492-.761-.738-1.441-.738-.322 0-.601.065-.835.193-.234.129-.428.299-.58.51-.147.205-.261.437-.343.695-.076.252-.114.506-.114.764zm6.337 3.05c-.446 0-.668-.223-.668-.668 0-.281.053-.472.158-.571.106-.1.275-.15.51-.15h.694c.129 0 .267-.014.413-.044.147-.035.29-.108.431-.219.146-.118.29-.273.431-.466.14-.199.272-.463.395-.791.258-.715.527-1.292.809-1.732.287-.445.577-.788.87-1.028.299-.24.6-.398.905-.475.311-.082.618-.123.923-.123.422 0 .811.082 1.169.246.357.159.668.387.931.686.264.293.469.645.616 1.055.152.404.228.861.228 1.371 0 .955-.231 1.717-.694 2.285-.463.562-1.175.844-2.136.844-.527 0-1.06-.088-1.599-.264-.534-.182-1.084-.486-1.653-.914-.146.223-.296.398-.448.527-.147.129-.305.226-.475.29-.17.059-.342.097-.518.115-.176.017-.366.026-.571.026h-.721zm7.427-2.962c0-.252-.039-.495-.115-.729-.07-.235-.175-.44-.316-.616-.141-.175-.311-.316-.51-.422-.199-.111-.433-.167-.703-.167-.475 0-.908.208-1.301.625-.386.416-.75 1.142-1.09 2.179.411.264.818.478 1.222.642.41.164.829.246 1.257.246.469 0 .844-.135 1.125-.404.287-.27.431-.721.431-1.354zM298.896 231c-.439 0-.791-.103-1.054-.308-.258-.211-.434-.471-.528-.782-.099.235-.24.422-.421.563-.176.14-.364.252-.563.334-.199.076-.395.129-.589.158-.187.023-.351.035-.492.035-.363 0-.671-.032-.923-.097-.252-.07-.463-.158-.633-.263-.164-.106-.296-.223-.395-.352-.094-.129-.167-.255-.22-.378-.205.457-.51.753-.914.888s-.867.202-1.389.202c-.673 0-1.169-.079-1.485-.237-.311-.164-.53-.358-.659-.58v.615c0 .738-.103 1.365-.308 1.881-.199.521-.498.949-.896 1.283-.393.34-.873.586-1.442.738-.568.158-1.215.238-1.942.238-1.529 0-2.681-.346-3.454-1.038-.768-.685-1.151-1.672-1.151-2.962v-2.592h1.362v2.302c0 .534.067.988.202 1.363.141.381.346.682.615.905.276.229.621.393 1.037.492.416.1.891.15 1.424.15.563 0 1.043-.038 1.442-.115.404-.076.735-.219.993-.43.263-.211.457-.495.58-.853.123-.357.184-.817.184-1.38v-5.396h1.354v2.382c0 .281.02.536.061.764.041.229.123.422.246.58.124.153.308.276.554.369.246.088.577.132.993.132.211 0 .402-.011.572-.035.175-.023.319-.076.43-.158.112-.088.197-.211.255-.369.065-.158.097-.378.097-.659v-3.006h1.371v2.382c0 .281.023.536.07.764.047.229.129.422.246.58.118.153.282.276.493.369.21.088.483.132.817.132.182 0 .349-.011.501-.035.158-.023.29-.076.395-.158.106-.088.188-.211.247-.369.064-.158.096-.378.096-.659v-3.841h1.38v3.217c0 .281.018.536.053.764.041.229.114.422.22.58.105.153.251.276.439.369.187.088.431.132.729.132.446 0 .668.223.668.668 0 .282-.052.472-.158.572-.105.099-.275.149-.51.149zm.009 0c-.445 0-.668-.223-.668-.668 0-.281.053-.472.159-.571.105-.1.275-.15.509-.15h3.762c.609 0 1.049-.096 1.318-.29.27-.199.405-.46.405-.782 0-.299-.123-.636-.369-1.011-.247-.381-.589-.764-1.029-1.151-.433-.393-.943-.773-1.529-1.143-.586-.369-1.219-.703-1.899-1.002.012-.134.036-.272.071-.413.041-.146.085-.281.132-.404.052-.123.102-.226.149-.308.053-.087.105-.143.158-.167l6.276-2.698v1.389l-4.931 2.18c1.184.591 2.124 1.233 2.821 1.924.698.686 1.163 1.369 1.398 2.048.14.387.272.697.395.932.123.234.249.422.378.562.135.135.284.226.448.273.17.041.361.061.572.061.451 0 .676.223.676.668 0 .282-.055.472-.167.572-.105.099-.275.149-.509.149-.223 0-.434-.012-.633-.035-.199-.029-.387-.088-.563-.176-.17-.094-.328-.226-.474-.395-.147-.176-.287-.411-.422-.704h-.062c-.216.528-.577.879-1.081 1.055-.498.17-1.11.255-1.837.255h-3.454zm8.543 0c-.445 0-.668-.223-.668-.668 0-.281.053-.472.158-.571.106-.1.276-.15.51-.15h2.066c-.205-.216-.375-.492-.51-.826-.129-.334-.193-.715-.193-1.142 0-.575.108-1.076.325-1.503.217-.428.501-.78.852-1.055.352-.281.741-.486 1.169-.615.434-.135.867-.202 1.301-.202.393 0 .732.023 1.02.07.293.041.501.088.624.141v1.494c-.211-.071-.44-.129-.686-.176-.246-.047-.548-.07-.905-.07-.703 0-1.263.172-1.679.518-.41.346-.615.817-.615 1.415 0 .574.179 1.043.536 1.406.357.364.899.545 1.626.545h2.443V231h-7.374z"/>
    <defs>
        <filter id="filter0_b" width="462.267" height="291.117" x="-39.831" y="-45.117" color-interpolation-filters="sRGB" filterUnits="userSpaceOnUse">
            <feFlood flood-opacity="0" result="BackgroundImageFix"/>
            <feGaussianBlur in="BackgroundImage" stdDeviation="25"/>
            <feComposite in2="SourceAlpha" operator="in" result="effect1_backgroundBlur"/>
            <feBlend in="SourceGraphic" in2="effect1_backgroundBlur" result="shape"/>
        </filter>
    </defs>
</svg>
