<svg width="37" height="24" fill="none" xmlns="http://www.w3.org/2000/svg">
    <path d="M17 18.43h-4l-4.45 2.96A.997.997 0 0 1 7 20.56v-2.13c-3 0-5-2-5-5v-6c0-3 2-5 5-5h10c3 0 5 2 5 5v6c0 3-2 5-5 5z" stroke="#139ECA" stroke-width="1.5" stroke-miterlimit="10" stroke-linecap="round" stroke-linejoin="round"/>
    <path d="M29.143 17H28.11V9.104h1.06v1.128c.127.1.294.176.499.226.205.05.453.075.745.075.42 0 .709-.084.868-.253.164-.168.246-.403.246-.704v-.472h1.012v.35c0 .7-.178 1.22-.533 1.558-.356.337-.839.506-1.45.506a3.26 3.26 0 0 1-.833-.09 4.733 4.733 0 0 1-.581-.211V17zm6.37-7.896h1.033V17h-1.032V9.104z" fill="#139ECA" fill-opacity=".8"/>
</svg>
