<svg width="45" height="24" fill="none" xmlns="http://www.w3.org/2000/svg">
    <path d="m7.48 18.35 3.1 2.4c.4.4 1.3.6 1.9.6h3.8c1.2 0 2.5-.9 2.8-2.1l2.4-7.3c.5-1.4-.4-2.6-1.9-2.6h-4c-.6 0-1.1-.5-1-1.2l.5-3.2c.2-.9-.4-1.9-1.3-2.2-.8-.3-1.8.1-2.2.7l-4.1 6.1" stroke="#139ECA" stroke-width="1.5" stroke-miterlimit="10"/>
    <path d="M2.38 18.35v-9.8c0-1.4.6-1.9 2-1.9h1c1.4 0 2 .5 2 1.9v9.8c0 1.4-.6 1.9-2 1.9h-1c-1.4 0-2-.5-2-1.9z" stroke="#139ECA" stroke-width="1.5" stroke-linecap="round" stroke-linejoin="round"/>
    <path d="M32.114 17h-1.032v-6.802h-2.994V9.104h4.026V17zm3.534-7.896h1.033V17h-1.033V9.104zM40.242 17H39.21V9.104h1.06v1.17c.09.072.21.134.355.184.15.05.3.075.451.075.25 0 .415-.084.492-.253.078-.168.117-.403.117-.704v-.472h1.018v.35c0 .345-.04.64-.123.881.1.055.212.102.335.143.128.037.253.055.376.055.25 0 .415-.084.492-.253.078-.168.116-.403.116-.704v-.472h1.019v.35c0 .7-.146 1.22-.438 1.558a1.38 1.38 0 0 1-1.086.506 1.39 1.39 0 0 1-.643-.144 4.923 4.923 0 0 1-.52-.314v-.014c-.14.164-.3.285-.478.362-.178.073-.37.11-.574.11a1.4 1.4 0 0 1-.595-.11 4.275 4.275 0 0 1-.342-.191V17z" fill="#139ECA" fill-opacity=".8"/>
</svg>
