<svg width="34" height="34" fill="none" xmlns="http://www.w3.org/2000/svg">
    <path d="m3.655 26.93-.028.03c-.383-.837-.624-1.786-.723-2.834a8.7 8.7 0 0 0 .751 2.805zM12.75 14.705a3.372 3.372 0 1 0 0-6.743 3.372 3.372 0 0 0 0 6.743z" fill="#fff"/>
    <path d="M22.936 2.833H11.064c-5.157 0-8.23 3.074-8.23 8.231v11.872c0 1.544.268 2.89.793 4.023 1.218 2.692 3.825 4.208 7.437 4.208h11.872c5.156 0 8.23-3.075 8.23-8.231V11.064c0-5.157-3.074-8.23-8.23-8.23zm5.921 14.875c-1.105-.949-2.89-.949-3.995 0l-5.893 5.058c-1.105.949-2.89.949-3.995 0l-.482-.397c-1.005-.878-2.606-.963-3.74-.198l-5.298 3.556c-.312-.794-.496-1.715-.496-2.791V11.064c0-3.995 2.111-6.106 6.106-6.106h11.872c3.995 0 6.106 2.111 6.106 6.106v6.8l-.185-.156z" fill="#fff"/>
</svg>
