<svg xmlns="http://www.w3.org/2000/svg" width="125" height="42" fill="none" viewBox="0 0 125 42">
    <path fill="#229DD1" d="M103.725 21.051l-6.954 7.017-3.477-3.483 3.528-3.534-3.528-3.483-3.477-3.483-6.954-6.966-13.909 13.932 13.909 13.983 6.954-6.966 3.477 3.432-10.431 10.449L62 21.05 82.863.205l10.431 10.397 3.477 3.483 6.954 6.966z"/>
    <path fill="#32759A" d="M124.588 20.846l-20.863 20.898-10.431-10.449-3.477-3.432-6.954-7.017 6.954-6.966 3.477 3.483-3.528 3.483 3.528 3.535 10.431 10.448 13.909-13.983-13.909-13.931-6.954 6.965-3.477-3.482L103.725 0l20.863 20.846z"/>
    <g opacity=".3">
        <path fill="url(#paint0_linear)" d="M91.607 26.378l1.687 1.741 1.739 1.742 8.692 8.707 17.386-17.414-17.386-17.415-8.692 8.707 1.738 1.742 6.954-7.017 13.96 13.983-13.96 13.931-6.954-6.966-1.739-1.741-1.738-1.741-3.477-3.483 3.477-3.535-1.687-1.741-5.267 5.276 5.267 5.224z" opacity=".3"/>
        <path fill="#fff" d="M96.772 14.188l-1.739-1.742-1.739-1.741L82.915.256 62.051 21.154 82.915 42l10.38-10.398-1.687-1.741-8.693 8.707-17.436-17.414L82.913 3.739l8.693 8.707 1.688 1.69 1.738 1.742 5.267 5.276-5.267 5.224 1.739 1.741 6.954-6.965-6.954-6.966z" opacity=".3"/>
        <path fill="url(#paint1_linear)" d="M95.033 15.878l-1.739-1.741-1.687-1.69-8.693-8.708-17.437 17.415 17.437 17.414 8.693-8.707-1.739-1.742-6.954 6.966-13.96-13.931L82.914 7.17l6.954 6.966 1.739 1.741 1.687 1.741 3.528 3.535-3.528 3.483 1.739 1.741 5.266-5.224-5.266-5.276z" opacity=".3"/>
        <path fill="#fff" d="M103.726.256L93.294 10.705l1.739 1.741 8.693-8.707 17.385 17.415-17.385 17.414-8.693-8.707-1.739-1.742-1.687-1.74-5.267-5.225 5.267-5.276-1.739-1.741-6.954 7.017 6.954 6.965 3.426 3.483L103.726 42l20.862-20.846L103.726.256z" opacity=".3"/>
    </g>
    <path fill="url(#paint2_radial)" d="M93.294 17.568l-3.426-3.483-4.244 4.252 4.398 2.51 3.272-3.279z" opacity=".3"/>
    <path fill="url(#paint3_radial)" d="M93.294 10.602l3.477 3.483 5.472-5.48c-.921-.922-2.353-2.254-3.529-3.38l-5.42 5.377z" opacity=".3"/>
    <path fill="url(#paint4_radial)" d="M93.294 31.5l-3.426-3.432-4.704 4.661 3.477 3.483 4.653-4.712z" opacity=".3"/>
    <path fill="url(#paint5_radial)" d="M96.771 28.068l3.324-3.38-3.886-2.971-2.915 2.868 3.477 3.483z" opacity=".3"/>
    <path fill="#264E64" d="M.023 26.006c0-.586.033-1.09.098-1.514.072-.43.192-.8.361-1.113.176-.32.42-.596.733-.83.319-.241.722-.46 1.21-.654.092-.762.277-1.404.557-1.924.287-.521.616-.944.987-1.27.377-.332.774-.57 1.191-.713.423-.143.82-.215 1.192-.215.507 0 .973.095 1.396.284.423.188.785.442 1.084.761.3.32.53.703.693 1.153.17.449.254.934.254 1.455 0 .56-.068 1.074-.205 1.543-.136.462-.345.862-.625 1.2-.28.333-.628.593-1.045.782-.41.183-.895.274-1.455.274-1.061 0-2.155-.372-3.281-1.114-.247.117-.426.33-.537.635-.104.306-.156.739-.156 1.299v6.348H.023v-6.387zm7.461-4.492c0-.436-.114-.798-.341-1.084-.228-.293-.54-.44-.938-.44-.41 0-.771.199-1.084.596-.306.397-.547.986-.723 1.768.326.188.642.341.948.459.312.117.592.175.84.175.41 0 .729-.123.957-.37.227-.248.341-.616.341-1.104zM19.281 25c-.175 1.354-.735 2.337-1.68 2.95-.943.618-2.35.927-4.218.927h-.586v-2.275h.43c.644 0 1.184-.04 1.62-.118.437-.071.792-.179 1.065-.322.28-.143.488-.312.625-.508.143-.189.235-.407.274-.654h-1.163c-.54 0-1.041-.062-1.503-.186-.463-.123-.863-.325-1.202-.605-.332-.28-.592-.641-.78-1.084-.183-.443-.274-.973-.274-1.592 0-.495.081-.983.244-1.465.17-.488.417-.924.742-1.308s.723-.69 1.191-.918c.47-.228 1.01-.342 1.621-.342.678 0 1.25.117 1.72.352.468.234.842.566 1.122.996.287.43.492.937.616 1.523.123.586.185 1.234.185 1.944v.537h1.367c.098 0 .19.013.274.039.09.02.169.062.234.127s.117.166.156.302c.046.137.069.323.069.557 0 .43-.062.726-.186.889-.117.156-.3.234-.547.234h-1.416zm-5.01-3.691c0 .599.127 1.005.381 1.22.254.215.593.323 1.016.323h1.23v-1.104c0-.599-.094-1.094-.283-1.484-.189-.398-.534-.596-1.035-.596-.462 0-.797.156-1.006.469-.202.312-.303.703-.303 1.172zM27.387 25c-.176 0-.365-.01-.567-.03-.195-.025-.387-.074-.576-.146-.182-.071-.358-.17-.527-.293-.17-.123-.306-.283-.41-.478-.157.208-.342.377-.557.508-.208.13-.43.227-.664.293-.228.058-.472.097-.732.117-.254.02-.505.029-.752.029h-1.885c-.098 0-.189-.01-.274-.03-.084-.019-.162-.061-.234-.126-.072-.072-.124-.176-.156-.313-.04-.136-.059-.322-.059-.556 0-.417.059-.707.176-.87.117-.169.3-.253.547-.253h1.494c.417 0 .71-.066.879-.196.176-.13.264-.423.264-.879v-4.19h2.412v3.985c0 .463.12.791.361.987.247.195.667.293 1.26.293.097 0 .189.013.273.039.091.02.17.062.235.127.071.065.123.166.156.302.039.137.058.323.058.557 0 .43-.058.726-.175.889-.118.156-.3.234-.547.234zm-6.182 3.125c0-.358.13-.667.39-.928.261-.26.574-.39.938-.39.358 0 .668.13.928.39s.39.57.39.928c0 .358-.13.667-.39.928-.26.26-.57.39-.928.39-.364 0-.677-.13-.937-.39s-.39-.57-.39-.928zm3.037 0c0-.358.13-.667.39-.928.261-.26.57-.39.928-.39.365 0 .678.13.938.39.26.26.39.57.39.928 0 .358-.13.667-.39.928-.26.26-.573.39-.938.39-.357 0-.667-.13-.927-.39s-.39-.57-.39-.928zm4.297-5.273c.417 0 .71-.066.879-.196.17-.13.254-.423.254-.879V11.71h2.422v9.863c0 .222.01.417.029.586.026.17.085.303.176.4.098.098.234.173.41.225.182.046.423.069.723.069.097 0 .188.013.273.039.091.02.17.062.235.127.071.065.123.166.156.302.039.137.058.323.058.557 0 .43-.058.726-.176.889-.117.156-.299.234-.546.234-.358 0-.694-.059-1.006-.176-.306-.117-.573-.374-.801-.771-.15.208-.329.377-.537.508-.208.13-.433.227-.674.293-.234.058-.479.097-.732.117-.254.02-.505.029-.752.029h-1.534c-.097 0-.188-.01-.273-.03-.085-.019-.163-.061-.234-.126-.072-.072-.124-.176-.157-.313-.039-.136-.058-.322-.058-.556 0-.417.058-.707.176-.87.117-.169.3-.253.546-.253h1.143zm7.129 0c-.176-.456-.264-.931-.264-1.426 0-.58.108-1.133.323-1.66.214-.534.51-.96.888-1.28l-.615.02c-.208.006-.417.023-.625.049v-1.69c.358-.052.713-.088 1.065-.107.358-.026.71-.04 1.054-.04 2.305 0 4.082.56 5.332 1.68 1.25 1.12 1.875 2.745 1.875 4.873V25h-11.27c-.097 0-.188-.01-.273-.03-.084-.019-.163-.061-.234-.126-.072-.072-.124-.176-.156-.313-.04-.136-.059-.322-.059-.556 0-.417.059-.707.176-.87.117-.169.3-.253.547-.253h2.236zm5.01-1.71c0 .378-.03.707-.088.987-.052.28-.12.52-.205.723h1.992c0-1.127-.212-2.002-.635-2.627-.423-.632-1.045-1.081-1.865-1.348.286.358.491.752.615 1.182.124.43.186.79.186 1.084zm-2.608 1.622c.137 0 .251-.059.342-.176.098-.117.17-.26.215-.43.045-.17.078-.345.098-.527.026-.182.039-.345.039-.488 0-.19-.013-.381-.04-.577-.025-.195-.071-.374-.136-.537-.059-.169-.137-.309-.235-.42-.09-.117-.208-.175-.351-.175-.13 0-.244.052-.342.156-.091.104-.166.24-.224.41-.059.17-.105.355-.137.557-.033.202-.049.41-.049.625 0 .15.013.319.04.508.025.182.067.354.126.517.065.156.15.29.254.4.104.105.238.157.4.157z"/>
    <defs>
        <radialGradient id="paint2_radial" cx="0" cy="0" r="1" gradientTransform="translate(85.3624 23.8378) scale(9.10863 9.12384)" gradientUnits="userSpaceOnUse">
            <stop offset=".706" stop-color="#fff"/>
            <stop offset=".76" stop-color="#FCFCFC"/>
            <stop offset=".799" stop-color="#F3F3F3"/>
            <stop offset=".833" stop-color="#E3E3E3"/>
            <stop offset=".865" stop-color="#CDCDCD"/>
            <stop offset=".895" stop-color="#B0B0B0"/>
            <stop offset=".923" stop-color="#8C8C8C"/>
            <stop offset=".951" stop-color="#626262"/>
            <stop offset=".976" stop-color="#333"/>
            <stop offset="1"/>
        </radialGradient>
        <radialGradient id="paint3_radial" cx="0" cy="0" r="1" gradientTransform="translate(101.042 5.94984) scale(8.9675 8.98246)" gradientUnits="userSpaceOnUse">
            <stop offset=".706" stop-color="#fff"/>
            <stop offset=".76" stop-color="#FCFCFC"/>
            <stop offset=".799" stop-color="#F3F3F3"/>
            <stop offset=".833" stop-color="#E3E3E3"/>
            <stop offset=".865" stop-color="#CDCDCD"/>
            <stop offset=".895" stop-color="#B0B0B0"/>
            <stop offset=".923" stop-color="#8C8C8C"/>
            <stop offset=".951" stop-color="#626262"/>
            <stop offset=".976" stop-color="#333"/>
            <stop offset="1"/>
        </radialGradient>
        <radialGradient id="paint4_radial" cx="0" cy="0" r="1" gradientTransform="translate(85.9224 35.0763) scale(7.34338 7.35563)" gradientUnits="userSpaceOnUse">
            <stop offset=".815" stop-color="#fff"/>
            <stop offset=".849" stop-color="#FCFCFC"/>
            <stop offset=".874" stop-color="#F3F3F3"/>
            <stop offset=".895" stop-color="#E3E3E3"/>
            <stop offset=".915" stop-color="#CDCDCD"/>
            <stop offset=".934" stop-color="#B0B0B0"/>
            <stop offset=".952" stop-color="#8C8C8C"/>
            <stop offset=".969" stop-color="#626262"/>
            <stop offset=".985" stop-color="#333"/>
            <stop offset="1"/>
        </radialGradient>
        <radialGradient id="paint5_radial" cx="0" cy="0" r="1" gradientTransform="translate(99.7586 22.3487) scale(6.21213 6.2225)" gradientUnits="userSpaceOnUse">
            <stop offset=".706" stop-color="#fff"/>
            <stop offset=".76" stop-color="#FCFCFC"/>
            <stop offset=".799" stop-color="#F3F3F3"/>
            <stop offset=".833" stop-color="#E3E3E3"/>
            <stop offset=".865" stop-color="#CDCDCD"/>
            <stop offset=".895" stop-color="#B0B0B0"/>
            <stop offset=".923" stop-color="#8C8C8C"/>
            <stop offset=".951" stop-color="#626262"/>
            <stop offset=".976" stop-color="#333"/>
            <stop offset="1"/>
        </radialGradient>
        <linearGradient id="paint0_linear" x1="128.283" x2="84.732" y1="21.14" y2="21.14" gradientUnits="userSpaceOnUse">
            <stop stop-color="#fff"/>
            <stop offset=".108" stop-color="#FAFAFA"/>
            <stop offset=".232" stop-color="#ECECEC"/>
            <stop offset=".363" stop-color="#D5D5D5"/>
            <stop offset=".5" stop-color="#B5B5B5"/>
            <stop offset=".642" stop-color="#8C8C8C"/>
            <stop offset=".786" stop-color="#595959"/>
            <stop offset=".932" stop-color="#1E1E1E"/>
            <stop offset="1"/>
        </linearGradient>
        <linearGradient id="paint1_linear" x1="65.498" x2="100.281" y1="21.14" y2="21.14" gradientUnits="userSpaceOnUse">
            <stop stop-color="#fff"/>
            <stop offset=".108" stop-color="#FAFAFA"/>
            <stop offset=".232" stop-color="#ECECEC"/>
            <stop offset=".363" stop-color="#D5D5D5"/>
            <stop offset=".5" stop-color="#B5B5B5"/>
            <stop offset=".642" stop-color="#8C8C8C"/>
            <stop offset=".786" stop-color="#595959"/>
            <stop offset=".932" stop-color="#1E1E1E"/>
            <stop offset="1"/>
        </linearGradient>
    </defs>
</svg>
